<svg width="362" height="425" xmlns="http://www.w3.org/2000/svg" xmlns:xlink="http://www.w3.org/1999/xlink" overflow="hidden"><defs><clipPath id="clip0"><rect x="541" y="28" width="362" height="425"/></clipPath></defs><g clip-path="url(#clip0)" transform="translate(-541 -28)"><path d="M884.853 156.464 738.648 35.0913C728.72 26.9696 714.28 26.9696 703.901 35.0913L557.245 156.464C546.866 165.037 541 177.67 541 191.206L541 406.429C541 431.245 561.306 451.549 586.125 451.549L640.275 451.549C655.166 451.549 667.35 439.366 667.35 424.477L667.35 330.627C667.35 320.701 675.473 312.579 685.4 312.579L757.6 312.579C767.528 312.579 775.65 320.701 775.65 330.627L775.65 424.928C775.65 439.818 787.834 452 802.725 452L856.875 452C881.694 452 902 431.696 902 406.88L902 191.206C901.098 178.122 895.231 165.037 884.853 156.464Z" fill="#28293c" fill-rule="evenodd"/></g></svg>