<svg width="460" height="460" xmlns="http://www.w3.org/2000/svg" xmlns:xlink="http://www.w3.org/1999/xlink" overflow="hidden"><defs><clipPath id="clip0"><rect x="770" y="117" width="460" height="460"/></clipPath></defs><g clip-path="url(#clip0)" transform="translate(-770 -117)"><path d="M803.902 542.046C758.699 496.919 758.699 423.74 803.902 378.613L1031.34 151.674C1076.54 106.567 1149.89 106.567 1195.1 151.674 1240.3 196.776 1240.3 269.974 1195.1 315.075L967.658 542.046C922.455 587.109 849.105 587.109 803.902 542.046ZM944.915 274.224 1072.28 401.337 1176.9 296.922C1212.34 261.559 1212.34 205.191 1176.9 169.828 1141.46 134.465 1084.97 134.465 1049.54 169.828ZM1112.08 305.152C1108.1 300.196 1108.63 292.236 1113.22 287.845L1131.41 269.685C1141.53 259.594 1147.72 248.99 1149.33 240.182 1150.93 231.375 1149.41 224.096 1140.51 215.218 1135.64 210.487 1135.58 201.731 1140.38 196.936 1145.19 192.135 1153.97 192.199 1158.71 197.065 1172.49 210.814 1177.57 228.532 1174.63 244.721 1171.68 260.91 1162.17 275.302 1149.61 287.845L1131.42 305.999C1126.37 311.262 1116.65 310.832 1112.08 305.152Z" fill="#28293c" fill-rule="evenodd"/></g></svg>