<svg width="446" height="445" xmlns="http://www.w3.org/2000/svg" xmlns:xlink="http://www.w3.org/1999/xlink" overflow="hidden"><defs><clipPath id="clip0"><rect x="279" y="25" width="446" height="445"/></clipPath></defs><g clip-path="url(#clip0)" transform="translate(-279 -25)"><path d="M398 120C409.046 120 418 111.14 418 100.211L418 45.7895C418 34.8601 409.046 26 398 26 386.954 26 378 34.8601 378 45.7895L378 100.211C378 111.14 386.954 120 398 120Z" fill="#28293c" fill-rule="evenodd"/><path d="M605.5 120C616.269 120 625 111.14 625 100.211L625 45.7895C625 34.8601 616.269 26 605.5 26 594.731 26 586 34.8601 586 45.7895L586 100.211C586 111.14 594.731 120 605.5 120Z" fill="#28293c" fill-rule="evenodd"/><path d="M315.221 469 687.779 469C707.783 469 724 452.816 724 432.852L724 189 279 189 279 432.852C279 452.816 295.217 469 315.221 469ZM405.206 301.748C411.967 295.006 422.922 295.006 429.682 301.748L487.249 359.199 602.984 243.696C609.744 236.951 620.702 236.952 627.46 243.698 634.218 250.443 634.218 261.377 627.46 268.122L499.487 395.836C492.727 402.58 481.77 402.58 475.011 395.836L405.206 326.174C398.449 319.428 398.449 308.493 405.206 301.748Z" fill="#28293c" fill-rule="evenodd"/><path d="M724 117.917C724 98.0806 707.783 82 687.779 82L644.889 82 644.889 100.357C644.889 122.021 627.179 139.582 605.333 139.582 583.487 139.582 565.778 122.021 565.778 100.357L565.778 82 437.222 82 437.222 100.357C437.222 122.021 419.513 139.582 397.667 139.582 375.821 139.582 358.111 122.021 358.111 100.357L358.111 82 315.221 82C295.217 82 279 98.0806 279 117.917L279 169 724 169Z" fill="#28293c" fill-rule="evenodd"/></g></svg>