<svg width="458" height="427" xmlns="http://www.w3.org/2000/svg" xmlns:xlink="http://www.w3.org/1999/xlink" overflow="hidden"><defs><clipPath id="clip0"><rect x="50" y="46" width="458" height="427"/></clipPath></defs><g clip-path="url(#clip0)" transform="translate(-50 -46)"><path d="M504.076 119.993C500.709 115.671 495.419 112.79 489.647 112.79L158.738 112.79 145.752 60.9263C143.828 52.7627 136.613 47 127.956 47L69.277 47C59.1765 47 51 55.1637 51 65.2483 51 75.3329 59.1765 83.4966 69.277 83.4966L114.007 83.4966 188.077 385.074C190.001 393.237 197.216 399 205.873 399L417.02 399C427.121 399 435.297 390.836 435.297 380.752 435.297 370.667 427.121 362.503 417.02 362.503L219.821 362.503 209.24 319.764 445.878 319.764C454.055 319.764 461.27 314.001 463.674 306.318L507.443 135.36C508.886 130.078 507.443 124.315 504.076 119.993Z" fill="#28293c" fill-rule="evenodd"/><path d="M269 443.5C269 459.792 256.016 473 240 473 223.984 473 211 459.792 211 443.5 211 427.208 223.984 414 240 414 256.016 414 269 427.208 269 443.5Z" fill="#28293c" fill-rule="evenodd"/><path d="M421 443.5C421 459.792 407.792 473 391.5 473 375.208 473 362 459.792 362 443.5 362 427.208 375.208 414 391.5 414 407.792 414 421 427.208 421 443.5Z" fill="#28293c" fill-rule="evenodd"/></g></svg>