<svg width="440" height="487" xmlns="http://www.w3.org/2000/svg" xmlns:xlink="http://www.w3.org/1999/xlink" overflow="hidden"><defs><clipPath id="clip0"><rect x="28" y="32" width="440" height="487"/></clipPath></defs><g clip-path="url(#clip0)" transform="translate(-28 -32)"><path d="M379.765 150 379.765 150C371.777 84 315.865 33 247.971 33 180.078 33 124.165 84 117.176 150L117.176 150C116.178 154 116.178 158 116.178 162L106.194 310C105.195 317 108.19 320 112.184 322 146.131 304 185.07 292 225.007 289 179.079 279 144.134 238 143.136 189 164.103 182 184.071 174 204.04 164L205.039 163 205.039 163 206.037 163 206.037 163 207.035 162 208.034 162 208.034 161 209.032 161 210.031 161 210.031 160 211.029 160 211.029 160 214.024 158 215.023 158 215.023 158 216.021 157 216.021 157 217.02 156 218.018 156 220.015 155 221.014 154 221.014 154 222.012 153 223.01 153 223.01 153 224.009 152 224.009 152 225.007 151 226.006 151 226.006 151 227.004 150C244.976 138 261.949 124 277.924 107 285.912 125 296.895 139 309.874 150L309.874 151 310.873 151 310.873 151 310.873 152 311.871 152 311.871 152 311.871 153 312.87 153 312.87 153 312.87 153 313.868 154 313.868 154 314.866 154 314.866 155 314.866 155 315.865 155 315.865 156 315.865 156 316.863 156 316.863 156 317.862 157 317.862 157 317.862 157 318.86 158 318.86 158 318.86 158 319.859 158 319.859 159 320.857 159 320.857 159 320.857 159 321.855 160 321.855 160 322.854 160 322.854 160 322.854 161 323.852 161 323.852 161 324.851 162 324.851 162 324.851 162 325.849 162 325.849 162 326.848 163 326.848 163 327.846 163 327.846 164 328.844 164 328.844 164C335.834 168 343.821 172 352.807 175 352.807 179 353.805 182 353.805 186 353.805 236 317.862 278 270.935 289 302.885 291 332.838 299 360.794 311 364.788 312 368.782 313 372.776 316 384.757 323 394.741 323 392.744 307L379.765 156C379.765 154 379.765 153 379.765 151L379.765 150Z" fill="#D9D9D9" fill-rule="evenodd"/><path d="M467 418C431 376 383 345 329 329 310 353 281 367 248 367 216 367 186 353 167 329 113 345 65 376 29 418 82 479 161 518 248 518 336 518 414 479 467 418Z" fill="#D9D9D9" fill-rule="evenodd"/></g></svg>